<?xml version="1.0" encoding="utf-8"?>
<svg version="1.1" xmlns:xlink="http://www.w3.org/1999/xlink" width="23px" height="19px" xmlns="http://www.w3.org/2000/svg">
  <g transform="matrix(1 0 0 1 -1109 -284 )">
    <path d="M 9.06223958333333 8.63792067307692  C 9.73706597222222 7.99469150641026  10.5496527777778 7.67307692307692  11.5 7.67307692307692  C 12.4503472222222 7.67307692307692  13.2629340277778 7.99469150641026  13.9377604166667 8.63792067307692  C 14.6125868055556 9.28114983974359  14.95 10.0556891025641  14.95 10.9615384615385  C 14.95 11.8673878205128  14.6125868055556 12.6419270833333  13.9377604166667 13.28515625  C 13.2629340277778 13.9283854166667  12.4503472222222 14.25  11.5 14.25  C 10.5496527777778 14.25  9.73706597222222 13.9283854166667  9.06223958333333 13.28515625  C 8.38741319444445 12.6419270833333  8.05 11.8673878205128  8.05 10.9615384615385  C 8.05 10.0556891025641  8.38741319444445 9.28114983974359  9.06223958333333 8.63792067307692  Z M 17.25 2.92307692307692  L 19.9333333333333 2.92307692307692  C 20.7798611111111 2.92307692307692  21.5026041666667 3.20853365384615  22.1015625 3.77944711538462  C 22.7005208333333 4.35036057692308  23 5.03926282051282  23 5.84615384615385  L 23 16.0769230769231  C 23 16.8838141025641  22.7005208333333 17.5727163461538  22.1015625 18.1436298076923  C 21.5026041666667 18.7145432692308  20.7798611111111 19  19.9333333333333 19  L 3.06666666666667 19  C 2.22013888888889 19  1.49739583333333 18.7145432692308  0.8984375 18.1436298076923  C 0.299479166666667 17.5727163461538  0 16.8838141025641  0 16.0769230769231  L 0 5.84615384615385  C 0 5.03926282051282  0.299479166666667 4.35036057692308  0.8984375 3.77944711538462  C 1.49739583333333 3.20853365384615  2.22013888888889 2.92307692307692  3.06666666666667 2.92307692307692  L 5.75 2.92307692307692  L 6.3609375 1.37019230769231  C 6.51267361111111 0.997195512820512  6.79019097222222 0.675580929487178  7.19348958333333 0.405348557692307  C 7.59678819444445 0.135116185897438  8.01006944444445 0  8.43333333333333 0  L 14.5666666666667 0  C 14.9899305555556 0  15.4032118055556 0.135116185897438  15.8065104166667 0.405348557692307  C 16.2098090277778 0.675580929487178  16.4873263888889 0.997195512820512  16.6390625 1.37019230769231  L 17.25 2.92307692307692  Z M 7.70859375 14.5754206730769  C 8.75876736111111 15.576422275641  10.0225694444444 16.0769230769231  11.5 16.0769230769231  C 12.9774305555556 16.0769230769231  14.2412326388889 15.576422275641  15.29140625 14.5754206730769  C 16.3415798611111 13.5744190705128  16.8666666666667 12.3697916666667  16.8666666666667 10.9615384615385  C 16.8666666666667 9.55328525641026  16.3415798611111 8.3486578525641  15.29140625 7.34765625  C 14.2412326388889 6.3466546474359  12.9774305555556 5.84615384615385  11.5 5.84615384615385  C 10.0225694444444 5.84615384615385  8.75876736111111 6.3466546474359  7.70859375 7.34765625  C 6.65842013888889 8.3486578525641  6.13333333333333 9.55328525641026  6.13333333333333 10.9615384615385  C 6.13333333333333 12.3697916666667  6.65842013888889 13.5744190705128  7.70859375 14.5754206730769  Z " fill-rule="nonzero" fill="#d7d7d7" stroke="none" transform="matrix(1 0 0 1 1109 284 )" />
  </g>
</svg>